<svg xmlns="http://www.w3.org/2000/svg" width="400" height="400" viewBox="0 0 400 400">
<defs>
<linearGradient id="gl" x1="0" y1="0" x2="1" y2="1"><stop offset="0" stop-color="#CFE1FF"/><stop offset="0.5" stop-color="#7FAEFF"/><stop offset="1" stop-color="#2F6FE0"/></linearGradient>
<linearGradient id="cp" x1="0" y1="0" x2="1" y2="0"><stop offset="0" stop-color="#22386B"/><stop offset="1" stop-color="#0E1A36"/></linearGradient>
<linearGradient id="nk" x1="0" y1="0" x2="1" y2="0"><stop offset="0" stop-color="#E8ECF2"/><stop offset="1" stop-color="#9AA5B8"/></linearGradient>
</defs>
<ellipse cx="200" cy="356" rx="104" ry="11" fill="#0E1A36" opacity="0.14"/>
<rect x="166" y="64" width="68" height="70" rx="10" fill="url(#cp)"/>
<rect x="166" y="96" width="68" height="6" fill="#3BB4FF" opacity="0.8"/>
<rect x="182" y="132" width="36" height="20" rx="3" fill="url(#nk)"/>
<rect x="116" y="150" width="168" height="200" rx="30" fill="url(#gl)"/>
<rect x="128" y="162" width="144" height="176" rx="22" fill="#FFFFFF" opacity="0.12"/>
<rect x="150" y="226" width="100" height="58" rx="8" fill="#F4F7FC" opacity="0.95"/>
<rect x="166" y="244" width="68" height="6" rx="3" fill="#0E1A36"/>
<rect x="178" y="258" width="44" height="5" rx="2.5" fill="#1F6BFF"/>
<path d="M134 172 Q140 166 150 166 L150 330 Q138 330 134 320 Z" fill="#FFFFFF" opacity="0.35"/>
</svg>
